<?xml version="1.0" encoding="UTF-8" standalone="no"?>
<!-- Generator: Adobe Illustrator 28.0.0, SVG Export Plug-In . SVG Version: 6.00 Build 0)  -->

<svg
   version="1.1"
   id="Layer_1"
   x="0px"
   y="0px"
   viewBox="0 0 741.28418 927.67246"
   xml:space="preserve"
   sodipodi:docname="asklepio_logo_no_text.svg"
   inkscape:export-filename="asklepio_logo_no_text.svg"
   inkscape:export-xdpi="110.59726"
   inkscape:export-ydpi="110.59726"
   inkscape:version="1.3 (0e150ed6c4, 2023-07-21)"
   width="741.28418"
   height="927.67249"
   xmlns:inkscape="http://www.inkscape.org/namespaces/inkscape"
   xmlns:sodipodi="http://sodipodi.sourceforge.net/DTD/sodipodi-0.dtd"
   xmlns="http://www.w3.org/2000/svg"
   xmlns:svg="http://www.w3.org/2000/svg"><defs
   id="defs49">&#10;	&#10;	&#10;	&#10;	&#10;	&#10;	&#10;	&#10;	&#10;	&#10;	&#10;	&#10;	&#10;	&#10;	&#10;	&#10;	&#10;	&#10;	&#10;	&#10;	&#10;	&#10;	&#10;	&#10;	&#10;	&#10;	&#10;	&#10;	&#10;	&#10;	&#10;	&#10;	&#10;	&#10;	&#10;	&#10;	&#10;	&#10;	&#10;	&#10;	&#10;	&#10;	&#10;	&#10;	&#10;	&#10;	&#10;	&#10;</defs><sodipodi:namedview
   id="namedview49"
   pagecolor="#ffffff"
   bordercolor="#000000"
   borderopacity="0.25"
   inkscape:showpageshadow="2"
   inkscape:pageopacity="0.0"
   inkscape:pagecheckerboard="0"
   inkscape:deskcolor="#d1d1d1"
   showgrid="false"
   inkscape:zoom="0.577858"
   inkscape:cx="389.36902"
   inkscape:cy="492.33549"
   inkscape:window-width="1920"
   inkscape:window-height="1009"
   inkscape:window-x="-8"
   inkscape:window-y="-8"
   inkscape:window-maximized="1"
   inkscape:current-layer="Layer_1" />&#10;&#10;<g
   id="g50"
   inkscape:export-filename="asklepio_logo_no_text.svg"
   inkscape:export-xdpi="110.59726"
   inkscape:export-ydpi="110.59726"
   transform="translate(-285.84464,-117.8898)"><path
     d="m 623.26,704.91 c -0.48,-8.13 -0.98,-15.71 -1.35,-23.31 -0.61,-12.48 -1.29,-24.96 -1.54,-37.44 -0.04,-1.99 1.46,-4.75 3.12,-5.91 9.56,-6.67 19.44,-12.88 29.09,-19.43 2.67,-1.81 4.66,-1.55 7.2,0.18 9.36,6.37 18.76,12.7 28.34,18.73 3,1.89 3.64,3.93 3.54,7.33 -0.59,18.98 -0.85,37.97 -1.2,56.95 -0.01,0.8 0.24,1.6 0.52,3.34 5.16,-1.01 10.25,-1.54 15.05,-3.02 66.34,-20.46 110.59,-63.57 131.05,-130 16.42,-53.3 7.22,-103.59 -21.88,-150.3 -11.14,-17.89 -24.26,-34.58 -37.01,-51.42 -6.41,-8.46 -10.74,-17.56 -12.68,-27.87 -0.3,-1.58 0.49,-3.36 0.78,-5.04 1.53,0.38 3.26,0.42 4.57,1.18 22.69,13.18 41.48,30.87 56.6,52.07 45.12,63.26 55.64,132.12 27.58,204.67 -27.7,71.62 -81.31,114.84 -155.89,132.3 -3.34,0.78 -7.78,0.52 -9.71,2.6 -1.75,1.9 -0.85,6.31 -1,9.63 -1.98,45.1 -3.96,90.2 -5.88,135.31 -0.88,20.64 -1.58,41.29 -2.48,61.93 -0.13,3.05 0.62,5.12 2.97,7.32 12.9,12.05 13.89,35.67 1.13,48.93 -5.59,5.81 -7.7,11.55 -7.75,19.19 -0.06,9.48 -1.18,18.95 -1.57,28.44 -0.13,3.24 -1.26,4.35 -4.47,4.29 -8.83,-0.17 -17.67,-0.23 -26.49,-0.02 -3.56,0.09 -4.61,-1.37 -4.82,-4.61 -0.75,-11.97 -1.76,-23.92 -2.47,-35.9 -0.24,-4 -1.42,-7.04 -4.51,-9.95 -14.71,-13.81 -15.11,-35.07 -1.57,-51.32 1.61,-1.94 2.79,-5 2.7,-7.49 -2.3,-67.94 -4.79,-135.87 -7.26,-203.81 -0.04,-0.98 -0.22,-1.96 -0.32,-2.84 -8.31,-1.61 -16.61,-2.6 -24.55,-4.84 -64.38,-18.19 -111.4,-57.44 -139.16,-118.28 -24.7,-54.13 -25.5,-109.55 -4.77,-165.35 1.55,-4.18 1.8,-8.99 1.89,-13.53 0.35,-17.27 0.83,-34.44 12.29,-48.89 6.38,-8.05 14.8,-13.63 24.04,-17.38 13.68,-5.54 28.03,-8.59 42.99,-6.88 9.15,1.05 12.27,4.18 14.29,13.12 2.91,12.9 -0.8,24.64 -6.96,35.48 -10.2,17.94 -23.18,33.49 -42.81,41.82 -5.4,2.29 -11.42,3.06 -17.03,4.92 -1.52,0.51 -3.09,2.24 -3.73,3.79 -7.45,18 -12.43,36.76 -12.96,56.2 -2.13,78.24 31.49,136.85 98.7,176.32 15.87,9.32 32.97,15.92 51.38,18.55 1,0.12 2,0.11 4,0.24 z"
     id="path1" /><path
     d="m 578.59,358.32 c 9.63,-4.22 17.93,-9.14 26.91,-11.55 31.07,-8.33 62.55,-9.25 93.85,-1.3 10.58,2.69 20.68,7.29 30.96,11.14 2.77,1.04 3.73,2.66 0.88,5.04 -20.27,16.94 -27.6,39.93 -29.16,65.06 -1.84,29.74 -2.86,59.53 -3.83,89.32 -0.2,6.22 -1.71,10.29 -7.42,13.63 -10.33,6.04 -20.12,13.02 -30.02,19.78 -2.69,1.83 -4.72,2.07 -7.58,0.12 -11.56,-7.87 -23.39,-15.35 -34.91,-23.27 -1.68,-1.16 -3.16,-3.89 -3.22,-5.94 -0.83,-25.63 -1.08,-51.29 -2.14,-76.91 -0.52,-12.58 -1.72,-25.23 -3.91,-37.62 -3.12,-17.69 -12.7,-31.91 -26.47,-43.35 -1.01,-0.8 -1.8,-1.86 -3.94,-4.15 z"
     id="path2" /><path
     d="m 476.75,153.83 c 16.92,-0.74 17.13,-0.64 21.87,15.79 15.6,54.08 31.14,108.18 46.79,162.25 0.8,2.76 0.09,3.69 -2.27,5.39 -8.92,6.45 -19.39,5.96 -29.43,7.27 -1.28,0.17 -3.37,-1.64 -4.24,-3.06 -19.94,-32.51 -39.71,-65.12 -59.65,-97.63 -7.92,-12.91 -16.35,-25.51 -24.15,-38.49 -1.42,-2.37 -1.65,-6.05 -1.15,-8.89 4.7,-26.56 25.26,-43.12 52.23,-42.63 z"
     id="path3" /><path
     d="m 801.73,344.89 c -9.86,-6.99 -19.29,-13.81 -28.87,-20.4 -2.67,-1.84 -1.89,-3.78 -1.21,-6.07 9.2,-31.13 18.36,-62.27 27.54,-93.41 6.45,-21.88 13.02,-43.72 19.23,-65.66 1.2,-4.25 3.32,-6.14 7.51,-6.29 30.27,-1.11 55.5,9.77 62.71,42.93 0.63,2.92 0.27,6.84 -1.24,9.32 -27.92,45.95 -56.09,91.76 -84.21,137.59 -0.43,0.69 -0.96,1.32 -1.46,1.99 z"
     id="path4" /><path
     d="m 947.44,273.95 c -36.1,33.8 -71.99,67.83 -107.95,101.79 -4.69,4.43 -5.09,4.29 -9.39,-0.53 -4.98,-5.59 -9.86,-11.34 -15.4,-16.34 -3.31,-2.99 -3.06,-5.13 -1,-8.4 7.91,-12.53 15.66,-25.16 23.48,-37.75 20.29,-32.68 40.66,-65.3 60.75,-98.09 2.59,-4.23 5.25,-4.66 9.46,-3.42 12.05,3.53 22.75,9.48 32.08,17.76 9.37,8.32 21.35,31.52 7.97,44.98 z"
     id="path5" /><path
     d="m 497.04,347.95 c -8.68,5.48 -17.02,10.75 -25.56,16.15 -3.25,2.05 -7.47,1.67 -10.29,-0.94 -7.9,-7.33 -16.3,-15.08 -24.63,-22.9 -24.29,-22.8 -48.58,-45.59 -72.7,-68.57 -1.77,-1.69 -3.08,-4.74 -3.16,-7.21 -0.84,-23.68 11.86,-38.55 32.15,-48.23 4.36,-2.08 8.84,-3.9 13.27,-5.8 4.15,-1.78 7.07,-0.84 9.54,3.27 11.49,19.12 23.22,38.1 34.86,57.13 14.68,24 29.37,47.99 44.01,72.01 1.08,1.81 1.87,3.79 2.51,5.09 z"
     id="path6" /><path
     d="m 860.41,419.35 c -4.12,-6.73 -8.08,-13.43 -12.25,-19.99 -5.68,-8.92 -7.62,-6.86 1.71,-15.49 35.45,-32.78 70.94,-65.53 106.24,-98.47 3.8,-3.54 6.66,-3.97 10.68,-0.8 11.85,9.36 23.11,19.09 28.25,34.07 3.28,9.56 2.15,19.06 0.22,28.58 -0.24,1.19 -1.68,2.47 -2.88,3.1 -43.3,22.81 -86.64,45.56 -129.98,68.3 -0.58,0.31 -1.23,0.44 -1.99,0.7 z"
     id="path7" /><path
     d="m 449.58,414.86 c -0.31,1.05 -1.52,1.56 -2.49,1.04 -14.98,-7.91 -29.38,-15.52 -43.78,-23.13 -26.21,-13.85 -52.4,-27.75 -78.67,-41.49 -3.62,-1.89 -5.77,-4.14 -6.84,-8.32 -3.34,-12.98 -1.05,-24.71 6.39,-35.64 6.74,-9.91 15.36,-17.87 25.19,-24.65 2.82,-1.95 4.95,-1.83 7.46,0.54 32.95,31.09 65.98,62.1 98.91,93.22 1.09,1.03 2.07,3.16 1.78,4.49 -2.29,10.69 -4.89,21.31 -7.41,31.95 -0.14,0.63 -0.32,1.24 -0.54,1.99 z"
     id="path8" /><path
     d="m 437.54,460.59 c -0.41,1.15 -1.59,1.83 -2.78,1.61 -21.4,-4.04 -42.95,-8.1 -64.5,-12.16 -22.26,-4.2 -44.54,-8.31 -66.75,-12.74 -2.18,-0.43 -4.75,-2.4 -5.81,-4.37 -11.12,-20.68 -5.15,-41.1 8.02,-60.95 1.03,-1.53 6.62,-12.91 19.44,-5.98 39.22,20.6 78.43,41.22 117.63,61.85 5.59,2.94 5.49,3.42 3.19,9.32 -2.95,7.54 -5.54,15.24 -8.44,23.42 z"
     id="path9" /><path
     d="m 1016.67,432.5 c -1.49,1.5 -3.61,4.12 -5.81,4.55 -43.32,8.31 -86.7,16.32 -130.02,24.59 -4.02,0.77 -5.46,-0.26 -6.63,-4.05 -2.21,-7.13 -4.79,-14.19 -7.8,-21.01 -1.56,-3.53 -0.04,-4.94 2.47,-6.3 7.9,-4.29 15.83,-8.52 23.75,-12.76 33.03,-17.66 69.32,-36.5 102.35,-54.17 10.68,1.59 33.46,57.31 21.69,69.15 z"
     id="path10" /><path
     d="m 310.07,523.86 c -10.07,0.34 -13.25,-2.74 -17.61,-10.07 -7.85,-13.19 -7.91,-27.31 -4.34,-41.57 1.56,-6.21 4.46,-12.09 6.88,-18.07 1.6,-3.97 4.58,-4.4 8.54,-3.6 21.87,4.39 43.78,8.56 65.67,12.8 20.1,3.89 40.18,7.93 60.33,11.52 4.56,0.81 4.95,2.56 4.46,6.6 -1.12,9.23 -1.86,18.54 -2.19,27.83 -0.14,3.89 -1.31,5.18 -5.08,5.46 -23.08,1.71 -46.14,3.63 -69.21,5.45 -15.26,1.21 -30.53,2.36 -47.45,3.65 z"
     id="path11" /><path
     d="m 1027.1,485.71 c 0.06,13.08 -2.89,23.9 -10.29,33.41 -2.09,2.68 -4.33,3.75 -7.62,3.51 -16.93,-1.2 -33.88,-2.27 -50.82,-3.44 -23.25,-1.6 -46.48,-3.39 -69.75,-4.73 -5.15,-0.3 -6.58,-1.89 -6.72,-7.04 -0.24,-8.61 -1.25,-17.26 -2.7,-25.77 -0.81,-4.78 0.35,-6.61 5.04,-7.46 30.47,-5.49 60.9,-11.17 91.34,-16.79 11.78,-2.17 23.55,-4.48 35.38,-6.39 1.8,-0.29 4.97,0.66 5.67,1.99 5.58,10.64 10.94,21.43 10.47,32.71 z"
     id="path12" /><path
     d="m 434.94,562.68 c 0.58,3.15 0.33,4.82 -3.04,5.98 -35.59,12.25 -71.1,24.68 -106.72,36.84 -1.93,0.66 -5.2,0.08 -6.73,-1.22 -20.11,-17.13 -23.54,-42.55 -15.97,-65.62 0.32,-0.98 2.09,-2.02 3.26,-2.12 35.03,-2.83 70.07,-5.54 105.1,-8.28 5.15,-0.4 10.29,-0.91 15.42,-1.35 3.81,-0.32 5.6,7.57 6.66,16.23 0.94,7.61 1.32,15.8 2.02,19.54 z"
     id="path13" /><path
     d="m 996.52,602.41 c -3.75,2.14 -5.68,3.65 -10.03,2.07 -33.98,-12.29 -68.09,-24.21 -102.17,-36.24 -6.57,-2.32 -6.35,-2.29 -5.44,-9.22 1.18,-8.9 2.27,-17.83 2.78,-26.78 0.24,-4.25 1.54,-5.46 5.68,-5.11 29.05,2.43 58.11,4.7 87.17,6.99 10.13,0.8 20.26,1.64 30.4,2.18 4.47,0.24 9.18,2.17 9.59,7.07 1.75,6.43 0.03,48.77 -17.98,59.04 z"
     id="path14" /><path
     d="m 709.98,474.8 c 10.42,-1.37 17.6,3.63 24.52,9.31 18,14.76 18.26,42.36 -0.39,59.82 -5.93,5.55 -12.12,10.99 -18.86,15.47 -34.23,22.77 -68.7,45.19 -103.04,67.8 -8.34,5.49 -13.8,21.81 -10.8,31.32 1.73,5.49 5.66,8.81 10.45,11.52 1.27,0.72 2.97,2.15 3.01,3.31 0.27,7.76 0.14,15.53 0.14,23.63 -9.41,0.82 -17.42,-3.17 -24.49,-9.32 -19.31,-16.81 -19.87,-36.19 -10.26,-59.43 3.25,-7.87 8.82,-13.42 15.86,-18.02 35.42,-23.1 70.72,-46.37 106.08,-69.56 8.09,-5.31 13.81,-12.44 16.65,-21.71 2.25,-7.36 -0.29,-13.23 -5.85,-18.28 -1.48,-1.35 -2.77,-3.68 -2.88,-5.64 -0.36,-6.6 -0.14,-13.23 -0.14,-20.22 z"
     id="path15" /><path
     d="m 986.99,626.25 c -1.14,22.41 -10.78,40.14 -30.48,52.13 -2.6,1.58 -4.41,1.15 -6.73,-0.46 -24.33,-16.93 -48.72,-33.77 -73.09,-50.63 -4.24,-2.94 -8.44,-5.95 -12.76,-8.76 -2.36,-1.54 -2.64,-2.81 -1.48,-5.65 3.94,-9.64 7.46,-19.47 10.77,-29.35 1.17,-3.49 2.55,-4.57 6.1,-3.3 34.62,12.43 69.25,24.84 103.95,37.06 4.94,1.73 3.25,5.41 3.72,8.96 z"
     id="path16" /><path
     d="m 437.88,580.46 c 4.61,12 9.12,23.4 13.22,34.95 0.42,1.19 -1.17,3.87 -2.54,4.82 -16.16,11.16 -32.45,22.12 -48.71,33.13 -11.99,8.11 -24.06,16.11 -35.95,24.38 -3.11,2.16 -5.32,1.91 -8.51,0.05 -20.54,-11.92 -28.67,-30.54 -29.41,-53.3 -0.1,-3.22 0.7,-5.62 4.32,-6.87 35.54,-12.27 71.04,-24.7 106.55,-37.06 0.46,-0.16 0.98,-0.1 1.03,-0.1 z"
     id="path17" /><path
     d="m 945.43,693.24 c -2.57,10.85 -6.64,20.11 -13.44,27.88 -6.93,7.92 -15.78,13.15 -25.71,16.64 -3.18,1.12 -5.47,0.79 -7.97,-1.81 -21.84,-22.64 -43.79,-45.18 -65.81,-67.65 -2.32,-2.36 -2.46,-3.94 -0.47,-6.72 7.07,-9.87 13.88,-19.92 20.56,-30.05 1.93,-2.93 3.39,-3.33 6.29,-1.26 27.61,19.77 55.3,39.41 82.93,59.15 1.46,1.04 2.53,2.65 3.62,3.82 z"
     id="path18" /><path
     d="m 383.8,724.33 c -6.78,-9.77 -13.31,-18.63 -15.68,-30.11 -0.3,-1.45 0.74,-3.99 1.98,-4.84 28.01,-19.22 56.16,-38.23 84.19,-57.4 3.5,-2.4 5.45,-1.69 7.66,1.64 6.45,9.69 13.09,19.25 19.77,28.78 1.79,2.55 1.44,4.48 -0.65,6.57 -22.25,22.25 -44.46,44.55 -66.74,66.78 -9.2,7.24 -24.78,-3.13 -30.53,-11.42 z"
     id="path19" /><path
     d="m 468.62,782.98 c -16.65,0 -41.35,-19.02 -45.25,-33.11 -0.7,-2.52 0.07,-5.21 1.91,-7.06 21.38,-21.51 42.73,-43.06 64,-64.68 2.43,-2.47 3.86,-1.79 6.12,0.2 7.71,6.8 15.53,13.47 23.52,19.93 3.19,2.58 2,4.73 0.38,7.27 -11.14,17.57 -22.25,35.16 -33.37,52.74 -4.54,7.18 -8.97,14.42 -13.64,21.5 -1.02,1.55 -2.89,2.55 -3.67,3.21 z"
     id="path20" /><path
     d="m 845.56,782.63 c -0.55,-0.43 -2.4,-1.29 -3.34,-2.74 -16.37,-25.3 -32.6,-50.68 -48.94,-76 -1.72,-2.66 -1.25,-4.2 1.15,-6.24 7.96,-6.79 15.76,-13.77 23.42,-20.9 2.32,-2.16 3.79,-1.89 5.79,0.16 22.12,22.62 44.3,45.17 66.34,67.86 1.11,1.15 1.77,3.73 1.32,5.25 -4.34,14.59 -28.78,32.41 -45.74,32.61 z"
     id="path21" /><path
     d="m 614.02,787.93 c 0.58,13.47 1.03,26.95 1.82,40.4 0.22,3.68 -1.02,5.27 -4.39,6.49 -21.97,7.97 -41.52,2.88 -59.6,-10.65 -2.55,-1.91 -3.21,-4.13 -2.11,-7.37 9.1,-26.78 18.06,-53.61 26.99,-80.45 1.29,-3.87 3.01,-4.56 7.06,-3.06 7.12,2.64 14.51,4.69 21.95,6.26 4.52,0.96 6.47,2.63 6.58,7.47 0.31,13.64 1.12,27.27 1.74,40.9 -0.01,0.01 -0.02,0.01 -0.04,0.01 z"
     id="path22" /><path
     d="m 699.58,787.72 c 0.5,-13.97 1.1,-27.94 1.41,-41.91 0.08,-3.7 1.41,-4.95 5.02,-5.85 8.05,-1.99 16,-4.52 23.78,-7.38 3.53,-1.29 4.99,-0.21 5.99,2.77 9.11,27.12 18.25,54.23 27.2,81.4 0.5,1.53 0.07,4.18 -0.99,5.27 -13.16,13.58 -37.69,22.44 -59.86,14.4 -3.41,-1.24 -4.45,-3.31 -4.29,-6.81 0.66,-13.96 1.11,-27.93 1.63,-41.9 0.04,0.01 0.07,0.01 0.11,0.01 z"
     id="path23" /><path
     d="m 528.95,714.37 c 2.24,-3.45 6.75,-4.61 10.38,-2.68 8.31,4.43 16.33,8.7 24.37,12.97 3.29,1.75 2.28,4.39 1.44,6.93 -5.63,17.06 -11.29,34.1 -16.93,51.15 -2.92,8.84 -6.03,17.63 -8.65,26.56 -1.31,4.47 -3.95,6 -8.28,6.29 -10.52,2.02 -39.84,-13.04 -47.34,-25.2 -1.19,-1.92 -1.19,-4.35 0.03,-6.25 14.95,-23.42 30.07,-46.73 44.98,-69.77 z"
     id="path25" /><path
     d="m 789.5,816.05 c -11.72,-0.01 -12.05,-0.27 -15.52,-10.2 -8.62,-24.68 -17.17,-49.38 -25.97,-74 -1.49,-4.15 -0.33,-5.57 3.41,-7.42 8.32,-4.11 16.39,-8.79 24.3,-13.67 3.04,-1.87 5.01,-2.24 6.99,0.93 15.82,25.26 31.67,50.49 47.4,75.81 0.71,1.14 1.01,3.58 0.32,4.38 -9.74,11.2 -20.41,21.13 -35.84,23.75 -2.13,0.36 -4.31,0.36 -5.09,0.42 z"
     id="path26" /><path
     d="m 740.42,348.34 c -57.07,-25.6 -113.09,-25.11 -170.09,0.05 2.28,-5.54 4.55,-11.09 6.86,-16.62 0.38,-0.92 7.35,-15.65 20.51,-18.72 42.14,-11.51 83.93,-10.89 125.42,2.81 2.15,0.71 4.35,2.9 5.43,4.96 3.4,6.47 6.33,13.19 9.31,19.87 0.98,2.18 1.54,4.55 2.56,7.65 z"
     id="path33" /><path
     d="m 653.5,568.38 c -6.76,4.75 -12.68,9 -18.74,13.06 -0.89,0.6 -2.79,0.83 -3.55,0.29 -18.99,-13.36 -40.18,-23.76 -55.77,-41.7 -11.25,-12.95 -13.64,-29.25 -5.31,-43.96 6.8,-12 16.52,-20.38 31.25,-20.86 0.81,-0.03 1.62,0.19 3.6,0.44 0,6.75 0.12,13.53 -0.12,20.3 -0.04,1.16 -1.47,2.46 -2.55,3.35 -9.85,8.09 -11.8,17.2 -4.39,27.56 4.06,5.68 9.51,10.73 15.23,14.8 12.87,9.14 26.29,17.49 40.35,26.72 z"
     id="path36" /><path
     d="m 659.18,600.3 c 6.97,-4.66 13.12,-8.87 19.4,-12.87 0.87,-0.55 2.7,-0.65 3.51,-0.1 14.01,9.54 28.98,18.03 41.59,29.17 15.43,13.65 22.36,45.47 3.89,65.17 -8.1,8.65 -17.84,14.11 -30.79,15.63 0,-8.62 -0.13,-16.73 0.15,-24.82 0.04,-1.15 1.97,-2.48 3.28,-3.32 12.63,-8.06 14.86,-18.45 7.8,-31.64 -5.24,-9.8 -14.62,-14.27 -23.01,-20.08 -8.2,-5.67 -16.61,-11.04 -25.82,-17.14 z"
     id="path37" /><g
     id="g49">&#10;	<path
   d="m 713.93,229.51 c -0.5,0 -0.98,-0.2 -1.32,-0.56 l -8.75,-9.21 c -0.73,-0.76 -1.95,-0.75 -2.66,0.03 l -8.99,9.93 c -0.35,0.38 -0.84,0.6 -1.36,0.6 l -18.32,-0.18 c -0.53,-0.01 -1.04,0.22 -1.39,0.62 l -9.43,10.86 c -0.51,0.63 -1.51,0.39 -1.69,-0.39 l -6.22,-25.52 c -0.11,-0.47 -0.78,-0.45 -0.85,0.03 l -5.02,33.86 c -0.19,1.15 -1.73,1.42 -2.3,0.4 l -11.02,-19.43 c -0.32,-0.56 -0.9,-0.91 -1.54,-0.92 l -12.52,-0.23 c -0.53,-0.01 -1.03,-0.25 -1.36,-0.66 l -3.63,-4.39 c -0.62,-0.76 -1.8,-0.73 -2.37,0.07 l -3.13,4.9 c -0.34,0.53 -0.93,0.85 -1.57,0.83 l -22.07,-0.5 c 19.55,22.98 43.54,41.73 49.27,45.85 10.54,7.58 16.97,12.55 19.16,14.26 l 0.42,0.33 0.42,-0.33 c 2.19,-1.72 8.62,-6.69 19.16,-14.26 5.75,-4.13 29.86,-22.98 49.45,-46.06 z"
   id="path48" />&#10;	<path
   d="m 732.89,126.73 c -19.3,-12.54 -41.66,-9.9 -56.35,-3.38 -12.62,5.6 -19.56,14.05 -21.27,16.32 -1.71,-2.27 -8.65,-10.72 -21.27,-16.32 -14.69,-6.52 -37.05,-9.16 -56.35,3.38 -11.7,7.6 -20.61,20.67 -18.03,51.59 1.08,13 8.3,26.94 17.92,40.11 l 25.6,0.58 c 0.5,0.01 0.99,-0.19 1.34,-0.55 l 9.47,-9.78 c 0.87,-0.82 2.23,-0.79 3.05,0.08 l 7.02,9.34 c 0.34,0.45 0.87,0.72 1.44,0.72 l 14.85,0.07 c 0.9,0 1.66,-0.65 1.8,-1.53 l 9.02,-58.1 c 0.14,-0.87 1.37,-0.91 1.56,-0.05 l 13.1,57.63 c 0.19,0.83 0.92,1.41 1.77,1.41 h 20.72 c 0.57,0 1.11,-0.27 1.45,-0.73 l 10.58,-14.12 c 1.15,-1.67 3.22,-1.67 4.41,-0.05 l 12.59,14.5 c 0.35,0.4 0.85,0.63 1.38,0.62 l 12.51,-0.08 c 0.55,0 1.26,0.04 1.81,0.05 1.77,-2.41 3.2,-4.47 4.78,-6.91 7.2,-11.07 12.23,-22.38 13.13,-33.2 2.58,-30.93 -6.33,-44 -18.03,-51.6 z"
   id="path49" />&#10;</g></g>&#10;</svg>
